# xmcd
#
# Track frame offsets:
#	150
#	17612
#	36127
#	52220
#	68225
#	89442
#	108897
#	125017
#	143105
#	156082
#	171420
#	181642
#	197715
#	210802
#	228227
#
# Disc length: 3271 seconds
#
# Revision: 1
# Processed by: cddbd v1.5.2PL0 Copyright (c) Steve Scherf et al.
# Submitted via: audiograbber 1.83.01
#
DISCID=c70cc50f
DTITLE=COUNTRY HITS VOL.92 - SC-8432
DYEAR=1900
DGENRE=
TTITLE0=Just To See You Smile - Tim McGraw
TTITLE1=One Small Miracle - Bryan White
TTITLE2=It's Not Over - Mark Chesnut
TTITLE3=The Note - Daryl Singeltary
TTITLE4=What If I Said - Anita Cochran and Steve Warnier
TTITLE5=Closer To Heaven - Mila Mason 
TTITLE6=I Can Love You Better - Dixie Chicks 
TTITLE7=Just Between You And Me - The Kinleys 
TTITLE8=Just Another Heartache - Chely Wright 
TTITLE9=Come Some Rainy Day - Wynona 
TTITLE10=Shame About That - Sara Evans 
TTITLE11=Little Red Rodeo - Collin Raye 
TTITLE12=Somebody Will - River Road
TTITLE13=What A Woman Knows - Kris Tyler 
TTITLE14=If I Never Stop Loving You - David Kersh 
EXTD=
EXTT0=
EXTT1=
EXTT2=
EXTT3=
EXTT4=
EXTT5=
EXTT6=
EXTT7=
EXTT8=
EXTT9=
EXTT10=
EXTT11=
EXTT12=
EXTT13=
EXTT14=
PLAYORDER=
